<svg xmlns="http://www.w3.org/2000/svg" viewBox="0 0 256 256"><defs><style>.be64b7f0-6839-43aa-b0bd-6dc44a1016b9{opacity:0.99;}.b9a25595-4e59-46b1-b478-7190b8b19da7{fill:#ffd600;}.b43099b8-a5de-4e1b-82d3-681a763c0ec3{fill:#665600;}</style></defs><g id="a74382ac-d7bc-4b9e-b66c-9db6365668be" data-name="レイヤー 2"><g id="a4fdf307-fc40-407f-b8c1-62a46dcc70b6" data-name="レイヤー 1"><g class="be64b7f0-6839-43aa-b0bd-6dc44a1016b9"><rect class="b9a25595-4e59-46b1-b478-7190b8b19da7" x="3" y="3" width="250" height="250" rx="29"/><path class="b43099b8-a5de-4e1b-82d3-681a763c0ec3" d="M224,6a26,26,0,0,1,26,26V224a26,26,0,0,1-26,26H32A26,26,0,0,1,6,224V32A26,26,0,0,1,32,6H224m0-6H32A32,32,0,0,0,0,32V224a32,32,0,0,0,32,32H224a32,32,0,0,0,32-32V32A32,32,0,0,0,224,0Z"/></g><path class="b43099b8-a5de-4e1b-82d3-681a763c0ec3" d="M69,108v77.92H46.64V70.72H81.52l21,90.56,20.8-90.56H158v115.2H135.44V108c0-3.84.16-14.88.16-18.72l-21.76,96.64H90.48L68.88,89.28C68.88,93.12,69,104.16,69,108Z"/><path class="b43099b8-a5de-4e1b-82d3-681a763c0ec3" d="M186.8,90.56V70.08h22.56V90.56Zm22.56,10.24v85.12H186.8V100.8Z"/></g></g></svg>